<svg viewBox="0 0 434.308 152.2896" width="5000" height="1753.2442414139277" xmlns="http://www.w3.org/2000/svg" xmlns:xlink="http://www.w3.org/1999/xlink" preserveAspectRatio="none"><defs></defs><style>.aIptOCySncolors-0 {fill:#EDC835;fill-opacity:1;}.companyName {fill:#08376B;fill-opacity:1;}.shapeStroke-str {stroke:#08376B;stroke-opacity:1;}.text {fill:#08376B;fill-opacity:1;}</style><g opacity="1" transform="rotate(0 0 0.26319999999998345)">
<svg width="69.1157" height="152.0264" x="0" y="0.26319999999998345" version="1.1" preserveAspectRatio="none" viewBox="35 17.01325035095215 30 65.98789978027344">
  <g transform="matrix(1 0 0 1 0 0)" class="aIptOCySncolors-0"><path d="M56.4,28.714c0.242-3.061-0.762-5.997-2.825-8.269l-2.835-3.119c-0.379-0.417-1.101-0.417-1.479,0l-2.835,3.119  c-2.065,2.272-3.069,5.208-2.827,8.269c0.242,3.061,1.697,5.802,4.094,7.72l1.683,1.346c0.364,0.294,0.882,0.292,1.249,0.001  l1.684-1.346C54.705,34.517,56.158,31.775,56.4,28.714z M51.059,34.873L50,35.719l-1.058-0.846  c-1.961-1.569-3.151-3.813-3.349-6.316c-0.199-2.504,0.623-4.907,2.312-6.765L50,19.487l2.096,2.305  c1.688,1.858,2.51,4.261,2.313,6.765C54.209,31.061,53.02,33.304,51.059,34.873z M63.496,32.136l-7.039,4.106  C53.091,38.206,51,41.846,51,45.744V50c0,0.786,0.854,1.246,1.504,0.864l7.039-4.106C62.909,44.794,65,41.154,65,37.256V33  C65,32.23,64.165,31.749,63.496,32.136z M63,37.256c0,3.189-1.711,6.167-4.465,7.774L53,48.259v-2.515  c0-3.189,1.711-6.167,4.465-7.774L63,34.741V37.256z M63.496,48.136l-7.039,4.106C53.091,54.206,51,57.846,51,61.744V66  c0,0.786,0.854,1.247,1.504,0.864l7.039-4.106C62.909,60.794,65,57.154,65,53.256V49C65,48.23,64.165,47.749,63.496,48.136z   M63,53.256c0,3.189-1.711,6.167-4.465,7.773L53,64.259v-2.515c0-3.189,1.711-6.167,4.465-7.773L63,50.741V53.256z M63.496,64.136  l-7.039,4.106C53.091,70.206,51,73.846,51,77.744V82c0,0.786,0.854,1.247,1.504,0.864l7.039-4.106  C62.909,76.794,65,73.154,65,69.256V65C65,64.229,64.164,63.749,63.496,64.136z M63,69.256c0,3.189-1.711,6.167-4.465,7.773  L53,80.259v-2.515c0-3.189,1.711-6.167,4.465-7.773L63,66.741V69.256z M43.542,36.242l-7.039-4.106C35.833,31.748,35,32.229,35,33  v4.256c0,3.897,2.091,7.538,5.458,9.501l7.039,4.106C48.144,51.247,49,50.788,49,50v-4.256C49,41.847,46.909,38.206,43.542,36.242z   M47,48.259l-5.535-3.229C38.711,43.424,37,40.445,37,37.256v-2.515l5.535,3.229C45.289,39.576,47,42.555,47,45.744V48.259z   M43.542,52.242l-7.039-4.106C35.833,47.748,35,48.229,35,49v4.256c0,3.896,2.091,7.538,5.458,9.501l7.039,4.106  C48.144,67.247,49,66.788,49,66v-4.256C49,57.848,46.909,54.206,43.542,52.242z M47,64.259l-5.535-3.229  C38.711,59.424,37,56.445,37,53.256v-2.515l5.535,3.229C45.289,55.576,47,58.555,47,61.744V64.259z M43.542,68.242l-7.039-4.106  C35.835,63.749,35,64.228,35,65v4.256c0,3.896,2.091,7.538,5.458,9.501l7.039,4.106C48.144,83.247,49,82.788,49,82v-4.256  C49,73.848,46.909,70.206,43.542,68.242z M47,80.259l-5.535-3.229C38.711,75.424,37,72.445,37,69.256v-2.515l5.535,3.229  C45.289,71.576,47,74.555,47,77.744V80.259z"></path></g>
</svg>
</g><g opacity="1" transform="rotate(0 146.942 0)">
<svg width="287.366" height="106" x="146.942" y="0" version="1.1" preserveAspectRatio="none" viewBox="3.58 -29.24 172.29999999999998 63.56">
  <g transform="matrix(1 0 0 1 0 0)" class="companyName"><path d="M20.44-28.92L31.80 0L27.64 0Q26.94 0 26.49-0.35Q26.04-0.70 25.84-1.22L25.84-1.22L23.68-7.12L11.70-7.12L9.54-1.22Q9.38-0.76 8.91-0.38Q8.44 0 7.76 0L7.76 0L3.58 0L14.94-28.92L20.44-28.92ZM16.60-20.50L13.08-10.92L22.30-10.92L18.78-20.54Q18.54-21.18 18.25-22.05Q17.96-22.92 17.68-23.94L17.68-23.94Q17.40-22.92 17.13-22.04Q16.86-21.16 16.60-20.50L16.60-20.50Z M40.16-28.92L40.16-4.44L51.74-4.44L51.74 0L34.78 0L34.78-28.92L40.16-28.92Z M55.46-28.92L73.70-28.92L73.70-24.64L60.88-24.64L60.88-16.62L70.98-16.62L70.98-12.48L60.88-12.48L60.88-4.30L73.70-4.30L73.70 0L55.46 0L55.46-28.92Z M91.64-3.96L91.64-3.96Q93.46-3.96 94.81-4.29Q96.16-4.62 97.38-5.20L97.38-5.20L97.38-10.46L93.76-10.46Q93.24-10.46 92.94-10.75Q92.64-11.04 92.64-11.46L92.64-11.46L92.64-14.50L102.26-14.50L102.26-2.80Q101.16-2 99.97-1.41Q98.78-0.82 97.43-0.44Q96.08-0.06 94.54 0.13Q93 0.32 91.22 0.32L91.22 0.32Q88.06 0.32 85.40-0.78Q82.74-1.88 80.80-3.84Q78.86-5.80 77.77-8.52Q76.68-11.24 76.68-14.46L76.68-14.46Q76.68-17.72 77.74-20.44Q78.80-23.16 80.75-25.12Q82.70-27.08 85.48-28.16Q88.26-29.24 91.72-29.24L91.72-29.24Q95.26-29.24 97.85-28.19Q100.44-27.14 102.24-25.46L102.24-25.46L100.68-23.02Q100.22-22.28 99.46-22.28L99.46-22.28Q98.98-22.28 98.48-22.60L98.48-22.60Q97.84-22.98 97.17-23.36Q96.50-23.74 95.69-24.02Q94.88-24.30 93.87-24.48Q92.86-24.66 91.54-24.66L91.54-24.66Q89.40-24.66 87.67-23.94Q85.94-23.22 84.72-21.88Q83.50-20.54 82.84-18.66Q82.18-16.78 82.18-14.46L82.18-14.46Q82.18-11.96 82.88-10.01Q83.58-8.06 84.84-6.72Q86.10-5.38 87.84-4.67Q89.58-3.96 91.64-3.96Z M115.14-11.30L112.84-11.30L112.84 0L107.46 0L107.46-28.92L116.28-28.92Q119.24-28.92 121.35-28.31Q123.46-27.70 124.81-26.60Q126.16-25.50 126.79-23.97Q127.42-22.44 127.42-20.60L127.42-20.60Q127.42-19.14 126.99-17.84Q126.56-16.54 125.75-15.48Q124.94-14.42 123.75-13.62Q122.56-12.82 121.04-12.34L121.04-12.34Q122.06-11.76 122.80-10.68L122.80-10.68L130.04 0L125.20 0Q124.50 0 124.01-0.28Q123.52-0.56 123.18-1.08L123.18-1.08L117.10-10.34Q116.76-10.86 116.35-11.08Q115.94-11.30 115.14-11.30L115.14-11.30ZM112.84-24.76L112.84-15.16L116.20-15.16Q117.72-15.16 118.85-15.54Q119.98-15.92 120.71-16.59Q121.44-17.26 121.80-18.18Q122.16-19.10 122.16-20.20L122.16-20.20Q122.16-22.40 120.71-23.58Q119.26-24.76 116.28-24.76L116.28-24.76L112.84-24.76Z M133.48-28.92L151.72-28.92L151.72-24.64L138.90-24.64L138.90-16.62L149-16.62L149-12.48L138.90-12.48L138.90-4.30L151.72-4.30L151.72 0L133.48 0L133.48-28.92Z M8.98 5.08L8.98 34L3.58 34L3.58 5.08L8.98 5.08Z M30 22L30 22Q30.34 22.64 30.63 23.33Q30.92 24.02 31.20 24.72L31.20 24.72Q31.48 24 31.78 23.30Q32.08 22.60 32.42 21.96L32.42 21.96L40.98 5.94Q41.14 5.64 41.31 5.46Q41.48 5.28 41.69 5.20Q41.90 5.12 42.16 5.10Q42.42 5.08 42.78 5.08L42.78 5.08L46.84 5.08L46.84 34L42.10 34L42.10 15.32Q42.10 14.80 42.13 14.18Q42.16 13.56 42.22 12.92L42.22 12.92L33.48 29.32Q33.18 29.88 32.70 30.19Q32.22 30.50 31.58 30.50L31.58 30.50L30.84 30.50Q30.20 30.50 29.72 30.19Q29.24 29.88 28.94 29.32L28.94 29.32L20.08 12.86Q20.16 13.52 20.19 14.15Q20.22 14.78 20.22 15.32L20.22 15.32L20.22 34L15.48 34L15.48 5.08L19.54 5.08Q19.90 5.08 20.16 5.10Q20.42 5.12 20.63 5.20Q20.84 5.28 21.02 5.46Q21.20 5.64 21.36 5.94L21.36 5.94L30 22Z M62.28 23.82L58.24 23.82L58.24 34L52.86 34L52.86 5.08L62.28 5.08Q65.18 5.08 67.30 5.76Q69.42 6.44 70.80 7.66Q72.18 8.88 72.84 10.58Q73.50 12.28 73.50 14.30L73.50 14.30Q73.50 16.40 72.80 18.15Q72.10 19.90 70.70 21.16Q69.30 22.42 67.20 23.12Q65.10 23.82 62.28 23.82L62.28 23.82ZM58.24 9.24L58.24 19.62L62.28 19.62Q63.76 19.62 64.86 19.25Q65.96 18.88 66.68 18.19Q67.40 17.50 67.76 16.51Q68.12 15.52 68.12 14.30L68.12 14.30Q68.12 13.14 67.76 12.20Q67.40 11.26 66.68 10.60Q65.96 9.94 64.86 9.59Q63.76 9.24 62.28 9.24L62.28 9.24L58.24 9.24Z M105.42 19.54L105.42 19.54Q105.42 22.72 104.36 25.43Q103.30 28.14 101.38 30.12Q99.46 32.10 96.76 33.21Q94.06 34.32 90.78 34.32L90.78 34.32Q87.50 34.32 84.79 33.21Q82.08 32.10 80.15 30.12Q78.22 28.14 77.16 25.43Q76.10 22.72 76.10 19.54L76.10 19.54Q76.10 16.36 77.16 13.65Q78.22 10.94 80.15 8.96Q82.08 6.98 84.79 5.87Q87.50 4.76 90.78 4.76L90.78 4.76Q94.06 4.76 96.76 5.88Q99.46 7 101.38 8.97Q103.30 10.94 104.36 13.65Q105.42 16.36 105.42 19.54ZM99.90 19.54L99.90 19.54Q99.90 17.16 99.27 15.27Q98.64 13.38 97.46 12.06Q96.28 10.74 94.59 10.04Q92.90 9.34 90.78 9.34L90.78 9.34Q88.66 9.34 86.96 10.04Q85.26 10.74 84.07 12.06Q82.88 13.38 82.24 15.27Q81.60 17.16 81.60 19.54L81.60 19.54Q81.60 21.92 82.24 23.81Q82.88 25.70 84.07 27.01Q85.26 28.32 86.96 29.02Q88.66 29.72 90.78 29.72L90.78 29.72Q92.90 29.72 94.59 29.02Q96.28 28.32 97.46 27.01Q98.64 25.70 99.27 23.81Q99.90 21.92 99.90 19.54Z M117.52 22.70L115.22 22.70L115.22 34L109.84 34L109.84 5.08L118.66 5.08Q121.62 5.08 123.73 5.69Q125.84 6.30 127.19 7.40Q128.54 8.50 129.17 10.03Q129.80 11.56 129.80 13.40L129.80 13.40Q129.80 14.86 129.37 16.16Q128.94 17.46 128.13 18.52Q127.32 19.58 126.13 20.38Q124.94 21.18 123.42 21.66L123.42 21.66Q124.44 22.24 125.18 23.32L125.18 23.32L132.42 34L127.58 34Q126.88 34 126.39 33.72Q125.90 33.44 125.56 32.92L125.56 32.92L119.48 23.66Q119.14 23.14 118.73 22.92Q118.32 22.70 117.52 22.70L117.52 22.70ZM115.22 9.24L115.22 18.84L118.58 18.84Q120.10 18.84 121.23 18.46Q122.36 18.08 123.09 17.41Q123.82 16.74 124.18 15.82Q124.54 14.90 124.54 13.80L124.54 13.80Q124.54 11.60 123.09 10.42Q121.64 9.24 118.66 9.24L118.66 9.24L115.22 9.24Z M132.30 5.08L155.12 5.08L155.12 9.50L146.42 9.50L146.42 34L141.04 34L141.04 9.50L132.30 9.50L132.30 5.08Z M175.36 7.80L174.04 10.34Q173.82 10.78 173.53 10.96Q173.24 11.14 172.84 11.14L172.84 11.14Q172.44 11.14 171.94 10.83Q171.44 10.52 170.76 10.14Q170.08 9.76 169.17 9.45Q168.26 9.14 167.02 9.14L167.02 9.14Q165.90 9.14 165.07 9.41Q164.24 9.68 163.67 10.16Q163.10 10.64 162.82 11.31Q162.54 11.98 162.54 12.78L162.54 12.78Q162.54 13.80 163.11 14.48Q163.68 15.16 164.62 15.64Q165.56 16.12 166.76 16.50Q167.96 16.88 169.21 17.31Q170.46 17.74 171.66 18.31Q172.86 18.88 173.80 19.75Q174.74 20.62 175.31 21.88Q175.88 23.14 175.88 24.94L175.88 24.94Q175.88 26.90 175.21 28.61Q174.54 30.32 173.25 31.59Q171.96 32.86 170.10 33.59Q168.24 34.32 165.84 34.32L165.84 34.32Q164.46 34.32 163.12 34.05Q161.78 33.78 160.55 33.28Q159.32 32.78 158.25 32.08Q157.18 31.38 156.34 30.52L156.34 30.52L157.90 27.94Q158.12 27.66 158.43 27.47Q158.74 27.28 159.12 27.28L159.12 27.28Q159.62 27.28 160.20 27.69Q160.78 28.10 161.57 28.60Q162.36 29.10 163.43 29.51Q164.50 29.92 166 29.92L166 29.92Q168.30 29.92 169.56 28.83Q170.82 27.74 170.82 25.70L170.82 25.70Q170.82 24.56 170.25 23.84Q169.68 23.12 168.74 22.63Q167.80 22.14 166.60 21.80Q165.40 21.46 164.16 21.06Q162.92 20.66 161.72 20.10Q160.52 19.54 159.58 18.64Q158.64 17.74 158.07 16.39Q157.50 15.04 157.50 13.06L157.50 13.06Q157.50 11.48 158.13 9.98Q158.76 8.48 159.97 7.32Q161.18 6.16 162.94 5.46Q164.70 4.76 166.96 4.76L166.96 4.76Q169.52 4.76 171.68 5.56Q173.84 6.36 175.36 7.80L175.36 7.80Z"/></g>
</svg>
</g><g opacity="1" transform="rotate(0 105.89729999999997 0.26319999999998345)">
<svg width="5.0915" height="151.5" x="105.89729999999997" y="0.26319999999998345" version="1.1" preserveAspectRatio="none" viewBox="0 0 5.0915 151.5">
  <rect x="0" y="0" width="5.0915" height="151.5" class="companyName shapeStroke-str" style="stroke-width:0;" rx="0px" ry="0px" />
</svg>
</g><g opacity="1" transform="rotate(0 148.12580000000003 126.29499999999996)">
<svg width="286.1822" height="25.9946" x="148.12580000000003" y="126.29499999999996" version="1.1" preserveAspectRatio="none" viewBox="4.56 -29.68 412.28000000000003 37.44">
  <g transform="matrix(1 0 0 1 0 0)" class="text"><path d="M23.76-25.44L7.52-25.44L7.52-14.44L22-14.44L22-11.88L7.52-11.88L7.52 0L4.56 0L4.56-28L23.76-28L23.76-25.44Z M30.08 0L30.08-21.04L32.92-21.04L32.92 0L30.08 0ZM31.52-25.64Q30.64-25.64 30.04-26.24Q29.44-26.84 29.44-27.68L29.44-27.68Q29.44-28.48 30.04-29.08Q30.64-29.68 31.52-29.68L31.52-29.68Q32.40-29.68 33-29.10Q33.60-28.52 33.60-27.72L33.60-27.72Q33.60-26.84 33-26.24Q32.40-25.64 31.52-25.64L31.52-25.64Z M52.76-21.20Q56.72-21.20 59.06-18.90Q61.40-16.60 61.40-12.20L61.40-12.20L61.40 0L58.56 0L58.56-11.92Q58.56-15.20 56.92-16.92Q55.28-18.64 52.24-18.64L52.24-18.64Q48.84-18.64 46.86-16.62Q44.88-14.60 44.88-11.04L44.88-11.04L44.88 0L42.04 0L42.04-21.04L44.76-21.04L44.76-17.16Q45.92-19.08 47.98-20.14Q50.04-21.20 52.76-21.20L52.76-21.20Z M88.76-10.52L88.72-9.64L71.12-9.64Q71.36-6.36 73.64-4.34Q75.92-2.32 79.40-2.32L79.40-2.32Q81.36-2.32 83.00-3.02Q84.64-3.72 85.84-5.08L85.84-5.08L87.44-3.24Q86.04-1.56 83.94-0.68Q81.84 0.20 79.32 0.20L79.32 0.20Q76.08 0.20 73.58-1.18Q71.08-2.56 69.68-5Q68.28-7.44 68.28-10.52L68.28-10.52Q68.28-13.60 69.62-16.04Q70.96-18.48 73.30-19.84Q75.64-21.20 78.56-21.20L78.56-21.20Q81.48-21.20 83.80-19.84Q86.12-18.48 87.44-16.06Q88.76-13.64 88.76-10.52L88.76-10.52ZM78.56-18.76Q75.52-18.76 73.46-16.82Q71.40-14.88 71.12-11.76L71.12-11.76L86.04-11.76Q85.76-14.88 83.70-16.82Q81.64-18.76 78.56-18.76L78.56-18.76Z M143.64-28L146.48-28L137.04 0L133.92 0L125.72-23.88L117.48 0L114.40 0L104.96-28L108.00-28L116.08-3.92L124.44-28L127.20-28L135.44-3.80L143.64-28Z M152.36 0L152.36-21.04L155.20-21.04L155.20 0L152.36 0ZM153.80-25.64Q152.92-25.64 152.32-26.24Q151.72-26.84 151.72-27.68L151.72-27.68Q151.72-28.48 152.32-29.08Q152.92-29.68 153.80-29.68L153.80-29.68Q154.68-29.68 155.28-29.10Q155.88-28.52 155.88-27.72L155.88-27.72Q155.88-26.84 155.28-26.24Q154.68-25.64 153.80-25.64L153.80-25.64Z M175.04-21.20Q179-21.20 181.34-18.90Q183.68-16.60 183.68-12.20L183.68-12.20L183.68 0L180.84 0L180.84-11.92Q180.84-15.20 179.20-16.92Q177.56-18.64 174.52-18.64L174.52-18.64Q171.12-18.64 169.14-16.62Q167.16-14.60 167.16-11.04L167.16-11.04L167.16 0L164.32 0L164.32-21.04L167.04-21.04L167.04-17.16Q168.20-19.08 170.26-20.14Q172.32-21.20 175.04-21.20L175.04-21.20Z M211.04-10.52L211-9.64L193.40-9.64Q193.64-6.36 195.92-4.34Q198.20-2.32 201.68-2.32L201.68-2.32Q203.64-2.32 205.28-3.02Q206.92-3.72 208.12-5.08L208.12-5.08L209.72-3.24Q208.32-1.56 206.22-0.68Q204.12 0.20 201.60 0.20L201.60 0.20Q198.36 0.20 195.86-1.18Q193.36-2.56 191.96-5Q190.56-7.44 190.56-10.52L190.56-10.52Q190.56-13.60 191.90-16.04Q193.24-18.48 195.58-19.84Q197.92-21.20 200.84-21.20L200.84-21.20Q203.76-21.20 206.08-19.84Q208.40-18.48 209.72-16.06Q211.04-13.64 211.04-10.52L211.04-10.52ZM200.84-18.76Q197.80-18.76 195.74-16.82Q193.68-14.88 193.40-11.76L193.40-11.76L208.32-11.76Q208.04-14.88 205.98-16.82Q203.92-18.76 200.84-18.76L200.84-18.76Z M223.68 0.20Q221.12 0.20 218.78-0.54Q216.44-1.28 215.12-2.40L215.12-2.40L216.40-4.64Q217.72-3.60 219.72-2.94Q221.72-2.28 223.88-2.28L223.88-2.28Q226.76-2.28 228.14-3.18Q229.52-4.08 229.52-5.72L229.52-5.72Q229.52-6.88 228.76-7.54Q228.00-8.20 226.84-8.54Q225.68-8.88 223.76-9.20L223.76-9.20Q221.20-9.68 219.64-10.18Q218.08-10.68 216.98-11.88Q215.88-13.08 215.88-15.20L215.88-15.20Q215.88-17.84 218.08-19.52Q220.28-21.20 224.20-21.20L224.20-21.20Q226.24-21.20 228.28-20.66Q230.32-20.12 231.64-19.24L231.64-19.24L230.40-16.96Q227.80-18.76 224.20-18.76L224.20-18.76Q221.48-18.76 220.10-17.80Q218.72-16.84 218.72-15.28L218.72-15.28Q218.72-14.08 219.50-13.36Q220.28-12.64 221.44-12.30Q222.60-11.96 224.64-11.60L224.64-11.60Q227.16-11.12 228.68-10.64Q230.20-10.16 231.28-9Q232.36-7.84 232.36-5.80L232.36-5.80Q232.36-3.04 230.06-1.42Q227.76 0.20 223.68 0.20L223.68 0.20Z M272.76-1.44L271.12 0.44L267.24-3.56Q263.68 0.24 257.88 0.24L257.88 0.24Q255.16 0.24 253.02-0.66Q250.88-1.56 249.68-3.18Q248.48-4.80 248.48-6.88L248.48-6.88Q248.48-9.40 250.08-11.40Q251.68-13.40 255.52-15.60L255.52-15.60Q253.52-17.68 252.76-19.14Q252.00-20.60 252.00-22.24L252.00-22.24Q252.00-24.92 253.92-26.56Q255.84-28.20 259.08-28.20L259.08-28.20Q262.08-28.20 263.84-26.72Q265.60-25.24 265.60-22.64L265.60-22.64Q265.60-20.56 264.20-18.90Q262.80-17.24 259.36-15.24L259.36-15.24L267.04-7.32Q268.32-9.60 268.92-12.72L268.92-12.72L271.24-12Q270.48-8.24 268.76-5.56L268.76-5.56L272.76-1.44ZM259.08-26.08Q257.00-26.08 255.82-25.04Q254.64-24 254.64-22.28L254.64-22.28Q254.64-21.04 255.28-19.92Q255.92-18.80 257.80-16.88L257.80-16.88Q260.84-18.64 262.00-19.88Q263.16-21.12 263.16-22.60L263.16-22.60Q263.16-24.20 262.08-25.14Q261.00-26.08 259.08-26.08L259.08-26.08ZM258.04-2.12Q262.68-2.12 265.56-5.28L265.56-5.28L257.12-13.96Q253.80-12.08 252.54-10.56Q251.28-9.04 251.28-7.16L251.28-7.16Q251.28-4.88 253.14-3.50Q255.00-2.12 258.04-2.12L258.04-2.12Z M298.44 0.24Q295.32 0.24 292.46-0.76Q289.60-1.76 288.04-3.40L288.04-3.40L289.20-5.68Q290.72-4.16 293.24-3.22Q295.76-2.28 298.44-2.28L298.44-2.28Q302.20-2.28 304.08-3.66Q305.96-5.04 305.96-7.24L305.96-7.24Q305.96-8.92 304.94-9.92Q303.92-10.92 302.44-11.46Q300.96-12 298.32-12.64L298.32-12.64Q295.16-13.44 293.28-14.18Q291.40-14.92 290.06-16.44Q288.72-17.96 288.72-20.56L288.72-20.56Q288.72-22.68 289.84-24.42Q290.96-26.16 293.28-27.20Q295.60-28.24 299.04-28.24L299.04-28.24Q301.44-28.24 303.74-27.58Q306.04-26.92 307.72-25.76L307.72-25.76L306.72-23.40Q304.96-24.56 302.96-25.14Q300.96-25.72 299.04-25.72L299.04-25.72Q295.36-25.72 293.50-24.30Q291.64-22.88 291.64-20.64L291.64-20.64Q291.64-18.96 292.66-17.94Q293.68-16.92 295.22-16.38Q296.76-15.84 299.36-15.20L299.36-15.20Q302.44-14.44 304.34-13.70Q306.24-12.96 307.56-11.46Q308.88-9.96 308.88-7.40L308.88-7.40Q308.88-5.28 307.74-3.54Q306.60-1.80 304.24-0.78Q301.88 0.24 298.44 0.24L298.44 0.24Z M326.76-21.20Q329.72-21.20 332.12-19.86Q334.52-18.52 335.88-16.08Q337.24-13.64 337.24-10.52L337.24-10.52Q337.24-7.36 335.88-4.92Q334.52-2.48 332.14-1.14Q329.76 0.20 326.76 0.20L326.76 0.20Q324.20 0.20 322.14-0.86Q320.08-1.92 318.76-3.96L318.76-3.96L318.76 7.76L315.92 7.76L315.92-21.04L318.64-21.04L318.64-16.88Q319.92-18.96 322.02-20.08Q324.12-21.20 326.76-21.20L326.76-21.20ZM326.56-2.32Q328.76-2.32 330.56-3.34Q332.36-4.36 333.38-6.24Q334.40-8.12 334.40-10.52L334.40-10.52Q334.40-12.92 333.38-14.78Q332.36-16.64 330.56-17.68Q328.76-18.72 326.56-18.72L326.56-18.72Q324.32-18.72 322.54-17.68Q320.76-16.64 319.74-14.78Q318.72-12.92 318.72-10.52L318.72-10.52Q318.72-8.12 319.74-6.24Q320.76-4.36 322.54-3.34Q324.32-2.32 326.56-2.32L326.56-2.32Z M344.24 0L344.24-21.04L347.08-21.04L347.08 0L344.24 0ZM345.68-25.64Q344.80-25.64 344.20-26.24Q343.60-26.84 343.60-27.68L343.60-27.68Q343.60-28.48 344.20-29.08Q344.80-29.68 345.68-29.68L345.68-29.68Q346.56-29.68 347.16-29.10Q347.76-28.52 347.76-27.72L347.76-27.72Q347.76-26.84 347.16-26.24Q346.56-25.64 345.68-25.64L345.68-25.64Z M358.92-16.92Q359.92-19.04 361.90-20.12Q363.88-21.20 366.80-21.20L366.80-21.20L366.80-18.44L366.12-18.48Q362.80-18.48 360.92-16.44Q359.04-14.40 359.04-10.72L359.04-10.72L359.04 0L356.20 0L356.20-21.04L358.92-21.04L358.92-16.92Z M373.12 0L373.12-21.04L375.96-21.04L375.96 0L373.12 0ZM374.56-25.64Q373.68-25.64 373.08-26.24Q372.48-26.84 372.48-27.68L372.48-27.68Q372.48-28.48 373.08-29.08Q373.68-29.68 374.56-29.68L374.56-29.68Q375.44-29.68 376.04-29.10Q376.64-28.52 376.64-27.72L376.64-27.72Q376.64-26.84 376.04-26.24Q375.44-25.64 374.56-25.64L374.56-25.64Z M395.16-3.32L396.16-1.28Q395.36-0.56 394.18-0.18Q393.00 0.20 391.72 0.20L391.72 0.20Q388.76 0.20 387.16-1.40Q385.56-3 385.56-5.92L385.56-5.92L385.56-18.64L381.80-18.64L381.80-21.04L385.56-21.04L385.56-25.64L388.40-25.64L388.40-21.04L394.80-21.04L394.80-18.64L388.40-18.64L388.40-6.08Q388.40-4.20 389.34-3.22Q390.28-2.24 392.04-2.24L392.04-2.24Q392.92-2.24 393.74-2.52Q394.56-2.80 395.16-3.32L395.16-3.32Z M408.16 0.20Q405.60 0.20 403.26-0.54Q400.92-1.28 399.60-2.40L399.60-2.40L400.88-4.64Q402.20-3.60 404.20-2.94Q406.20-2.28 408.36-2.28L408.36-2.28Q411.24-2.28 412.62-3.18Q414.00-4.08 414.00-5.72L414.00-5.72Q414.00-6.88 413.24-7.54Q412.48-8.20 411.32-8.54Q410.16-8.88 408.24-9.20L408.24-9.20Q405.68-9.68 404.12-10.18Q402.56-10.68 401.46-11.88Q400.36-13.08 400.36-15.20L400.36-15.20Q400.36-17.84 402.56-19.52Q404.76-21.20 408.68-21.20L408.68-21.20Q410.72-21.20 412.76-20.66Q414.80-20.12 416.12-19.24L416.12-19.24L414.88-16.96Q412.28-18.76 408.68-18.76L408.68-18.76Q405.96-18.76 404.58-17.80Q403.20-16.84 403.20-15.28L403.20-15.28Q403.20-14.08 403.98-13.36Q404.76-12.64 405.92-12.30Q407.08-11.96 409.12-11.60L409.12-11.60Q411.64-11.12 413.16-10.64Q414.68-10.16 415.76-9Q416.84-7.84 416.84-5.80L416.84-5.80Q416.84-3.04 414.54-1.42Q412.24 0.20 408.16 0.20L408.16 0.20Z"/></g>
</svg>
</g></svg>